<svg xmlns="http://www.w3.org/2000/svg"  viewBox="0 0 32 32" width="32px" height="32px"><path d="M 16 3 C 8.8321388 3 3 8.832144 3 16 C 3 23.167856 8.8321388 29 16 29 C 23.167861 29 29 23.167856 29 16 C 29 8.832144 23.167861 3 16 3 z M 16 5 C 22.086982 5 27 9.9130223 27 16 C 27 22.086978 22.086982 27 16 27 C 9.9130183 27 5 22.086978 5 16 C 5 9.9130223 9.9130183 5 16 5 z M 20.847656 9.9472656 C 18.406453 9.9141174 15.861513 10.593889 13.615234 11.607422 C 11.048058 12.765745 8.8694649 14.328757 7.7089844 16.074219 A 1.0001 1.0001 0 0 0 7.7714844 17.265625 C 8.5189467 18.166544 9.5725893 18.666277 10.710938 18.826172 C 11.624301 18.954465 12.67997 18.814662 13.771484 18.666016 C 14.29426 19.854514 15.058525 20.872278 15.974609 21.572266 C 17.089407 22.424092 18.29473 22.936984 19.457031 22.910156 A 1.0001 1.0001 0 0 0 20.089844 22.664062 C 20.773305 22.067661 21.21272 21.2298 21.607422 20.246094 C 22.002124 19.262387 22.31963 18.12643 22.554688 16.966797 C 23.024801 14.64753 23.231697 12.328828 22.744141 10.710938 A 1.0001 1.0001 0 0 0 21.886719 10.005859 C 21.543401 9.9709014 21.1964 9.9520011 20.847656 9.9472656 z M 20.876953 12.048828 C 20.991731 13.120992 20.948513 14.820124 20.59375 16.570312 C 20.378307 17.63318 20.083548 18.668707 19.75 19.5 C 19.499053 20.125428 19.247116 20.448346 19.017578 20.748047 C 18.522624 20.664447 17.872724 20.504515 17.189453 19.982422 C 16.504721 19.459212 15.947976 18.712937 15.580078 17.878906 L 17.433594 16.169922 A 1.0001 1.0001 0 1 0 16.078125 14.699219 L 13.939453 16.669922 C 12.743755 16.853784 11.71081 16.947191 10.988281 16.845703 C 10.595269 16.790503 10.418948 16.553039 10.150391 16.416016 C 11.130812 15.380677 12.579644 14.268842 14.439453 13.429688 C 16.496871 12.501369 18.807311 12.010347 20.876953 12.048828 z"/></svg>